<?xml version="1.0" encoding="UTF-8"?>
<svg width="24px" height="24px" viewBox="0 0 24 24" version="1.1" xmlns="http://www.w3.org/2000/svg" xmlns:xlink="http://www.w3.org/1999/xlink">
    <!-- Generator: Sketch 52.1 (67048) - http://www.bohemiancoding.com/sketch -->
    <title>icon_content_car_selected</title>
    <desc>Created with Sketch.</desc>
    <defs>
        <path d="M14.2136465,16.8 L8.78675346,16.8 C8.63523263,18.4821847 7.2218995,19.8 5.5002,19.8 C3.7785005,19.8 2.36516737,18.4821847 2.21364654,16.8 L1,16.8 C0.5581722,16.8 0.2,16.4418278 0.2,16 L0.2,11 C0.2,10.84206 0.246750422,10.6876539 0.334359765,10.5562398 L4.33435976,4.55623984 C4.48273239,4.33368091 4.73251745,4.2 5,4.2 L15,4.2 C15.2810103,4.2 15.5414157,4.34743907 15.6859943,4.5884034 L18.4529523,9.2 L23,9.2 C23.4418278,9.2 23.8,9.5581722 23.8,10 L23.8,16 C23.8,16.4418278 23.4418278,16.8 23,16.8 L20.7867535,16.8 C20.6352326,18.4821847 19.2218995,19.8 17.5002,19.8 C15.7785005,19.8 14.3651674,18.4821847 14.2136465,16.8 Z M14.4660357,15.2 C14.9705509,14.0237277 16.1390001,13.2 17.5002,13.2 C18.8613999,13.2 20.0298491,14.0237277 20.5343643,15.2 L22.2,15.2 L22.2,10.8 L18,10.8 C17.7189897,10.8 17.4585843,10.6525609 17.3140057,10.4115966 L14.5470477,5.8 L5.42814701,5.8 L1.8,11.2422205 L1.8,15.2 L2.46603569,15.2 C2.9705509,14.0237277 4.13900006,13.2 5.5002,13.2 C6.86139994,13.2 8.0298491,14.0237277 8.53436431,15.2 L14.4660357,15.2 Z M3.8002,16.5 C3.8002,17.4391722 4.5610278,18.2 5.5002,18.2 C6.4393722,18.2 7.2002,17.4391722 7.2002,16.5 C7.2002,15.5608278 6.4393722,14.8 5.5002,14.8 C4.5610278,14.8 3.8002,15.5608278 3.8002,16.5 Z M15.8002,16.5 C15.8002,17.4391722 16.5610278,18.2 17.5002,18.2 C18.4393722,18.2 19.2002,17.4391722 19.2002,16.5 C19.2002,15.5608278 18.4393722,14.8 17.5002,14.8 C16.5610278,14.8 15.8002,15.5608278 15.8002,16.5 Z M14.0002,9.2 C14.4420278,9.2 14.8002,9.5581722 14.8002,10 C14.8002,10.4418278 14.4420278,10.8 14.0002,10.8 L11.0002,10.8 C10.5583722,10.8 10.2002,10.4418278 10.2002,10 L10.2002,8 C10.2002,7.5581722 10.5583722,7.2 11.0002,7.2 C11.4420278,7.2 11.8002,7.5581722 11.8002,8 L11.8002,9.2 L14.0002,9.2 Z" id="path-1"></path>
    </defs>
    <g id="保留" stroke="none" stroke-width="1" fill="none" fill-rule="evenodd">
        <g id="寄件/上门取件/大陆件/同城/3信息填写_弹框1-copy" transform="translate(-140.000000, -290.000000)">
            <g id="Group-4" transform="translate(140.000000, 290.000000)">
                <g id="icon/content/car_24px">
                    <mask id="mask-2" fill="white">
                        <use xlink:href="#path-1"></use>
                    </mask>
                    <use id="Combined-Shape" fill="#000000" fill-rule="nonzero" xlink:href="#path-1"></use>
                    <g id="✱-/-Color-/-Icons-/-Black-/-white" mask="url(#mask-2)" fill="#FFFFFF" fill-rule="evenodd">
                        <g transform="translate(-38.000000, -39.000000)" id="Rectangle">
                            <rect x="0" y="0" width="101" height="101"></rect>
                        </g>
                    </g>
                </g>
            </g>
        </g>
    </g>
</svg>