<?xml version="1.0" encoding="UTF-8"?>
<svg width="24px" height="24px" viewBox="0 0 24 24" version="1.1" xmlns="http://www.w3.org/2000/svg" xmlns:xlink="http://www.w3.org/1999/xlink">
    <!-- Generator: Sketch 52.1 (67048) - http://www.bohemiancoding.com/sketch -->
    <title>icon_content_cloth</title>
    <desc>Created with Sketch.</desc>
    <defs>
        <path d="M4.83636364,11.0727273 L2,11.0727273 C1.5581722,11.0727273 1.2,10.7145551 1.2,10.2727273 L1.2,4.81818182 C1.2,4.51516417 1.3712019,4.23815368 1.64222912,4.10264007 L5.27859276,2.28445825 C5.38967711,2.22891607 5.51216756,2.2 5.63636364,2.2 L8.36363636,2.2 C8.80546416,2.2 9.16363636,2.5581722 9.16363636,3 C9.16363636,4.56635402 10.433646,5.83636364 12,5.83636364 C13.566354,5.83636364 14.8363636,4.56635402 14.8363636,3 C14.8363636,2.5581722 15.1945358,2.2 15.6363636,2.2 L18.3636364,2.2 C18.4878324,2.2 18.6103229,2.22891607 18.7214072,2.28445825 L22.3577709,4.10264007 C22.6287981,4.23815368 22.8,4.51516417 22.8,4.81818182 L22.8,10.2727273 C22.8,10.7145551 22.4418278,11.0727273 22,11.0727273 L19.1636364,11.0727273 L19.1636364,21.1818182 C19.1636364,21.623646 18.8054642,21.9818182 18.3636364,21.9818182 L5.63636364,21.9818182 C5.19453584,21.9818182 4.83636364,21.623646 4.83636364,21.1818182 L4.83636364,11.0727273 Z M12,7.43636364 C9.82312273,7.43636364 8.01228485,5.86820873 7.63558746,3.8 L5.82521802,3.8 L2.8,5.31260901 L2.8,9.47272727 L5.63636364,9.47272727 C6.07819144,9.47272727 6.43636364,9.83089947 6.43636364,10.2727273 L6.43636364,20.3818182 L17.5636364,20.3818182 L17.5636364,10.2727273 C17.5636364,9.83089947 17.9218086,9.47272727 18.3636364,9.47272727 L21.2,9.47272727 L21.2,5.31260901 L18.174782,3.8 L16.3644125,3.8 C15.9877151,5.86820873 14.1768773,7.43636364 12,7.43636364 Z" id="path-1"></path>
    </defs>
    <g id="保留" stroke="none" stroke-width="1" fill="none" fill-rule="evenodd">
        <g id="寄件/上门取件/大陆件/普通物品/5完善信息首页_托寄物1-copy" transform="translate(-278.000000, -511.000000)">
            <g id="Group-7" transform="translate(278.000000, 511.000000)">
                <g id="icon/content/cloth_24px">
                    <mask id="mask-2" fill="white">
                        <use xlink:href="#path-1"></use>
                    </mask>
                    <use id="Stroke-1" fill="#000000" fill-rule="nonzero" xlink:href="#path-1"></use>
                    <g id="✱-/-Color-/-Icons-/-Black-/-dark" mask="url(#mask-2)" fill="#1C1C1C" fill-rule="evenodd">
                        <rect id="Rectangle" x="0" y="0" width="24" height="24"></rect>
                    </g>
                </g>
            </g>
        </g>
    </g>
</svg>