<?xml version="1.0" encoding="UTF-8"?>
<svg width="24px" height="24px" viewBox="0 0 24 24" version="1.1" xmlns="http://www.w3.org/2000/svg" xmlns:xlink="http://www.w3.org/1999/xlink">
    <!-- Generator: Sketch 52.1 (67048) - http://www.bohemiancoding.com/sketch -->
    <title>icon_content_digital3C_selected</title>
    <desc>Created with Sketch.</desc>
    <defs>
        <path d="M5.56550012,5.95 L7.52530495,3.50024396 C7.6771227,3.31047178 7.90697302,3.2 8.15,3.2 L15.85,3.2 C16.093027,3.2 16.3228773,3.31047178 16.474695,3.50024396 L18.4344999,5.95 L21.3498186,5.95 C22.7003188,5.95 23.8,7.04494587 23.8,8.39509973 L23.8,18.8549003 C23.8,20.2045656 22.7032499,21.3 21.3519302,21.3 L2.64681114,21.3 C1.29604951,21.3 0.2,20.2044286 0.2,18.8549003 L0.2,8.39509973 C0.2,7.04494587 1.29968118,5.95 2.65018135,5.95 L5.56550012,5.95 Z M15.4655001,4.8 L8.53449988,4.8 L6.57469505,7.24975604 C6.4228773,7.43952822 6.19302698,7.55 5.95,7.55 L2.65018135,7.55 C2.18179483,7.55 1.8,7.93015079 1.8,8.39509973 L1.8,18.8549003 C1.8,19.3206167 2.17954887,19.7 2.64681114,19.7 L21.3519302,19.7 C21.8200239,19.7 22.2,19.3204798 22.2,18.8549003 L22.2,8.39509973 C22.2,7.93015079 21.8182052,7.55 21.3498186,7.55 L18.05,7.55 C17.806973,7.55 17.5771227,7.43952822 17.425305,7.24975604 L15.4655001,4.8 Z M12,17.45 C9.43187591,17.45 7.35,15.3681241 7.35,12.8 C7.35,10.2318759 9.43187591,8.15 12,8.15 C14.5681241,8.15 16.65,10.2318759 16.65,12.8 C16.65,15.3681241 14.5681241,17.45 12,17.45 Z M12,15.85 C13.6844685,15.85 15.05,14.4844685 15.05,12.8 C15.05,11.1155315 13.6844685,9.75 12,9.75 C10.3155315,9.75 8.95,11.1155315 8.95,12.8 C8.95,14.4844685 10.3155315,15.85 12,15.85 Z" id="path-1"></path>
    </defs>
    <g id="保留" stroke="none" stroke-width="1" fill="none" fill-rule="evenodd">
        <g id="寄件/上门取件/大陆件/普通物品/5完善信息首页_托寄物1-copy" transform="translate(-136.000000, -511.000000)">
            <g id="Group-4" transform="translate(136.000000, 511.000000)">
                <g id="icon/content/digital_24px-copy">
                    <mask id="mask-2" fill="white">
                        <use xlink:href="#path-1"></use>
                    </mask>
                    <use id="Combined-Shape" fill="#000000" fill-rule="nonzero" xlink:href="#path-1"></use>
                    <g id="✱-/-Color-/-Icons-/-red-/-active" mask="url(#mask-2)" fill="#DC1E32" fill-rule="evenodd">
                        <g transform="translate(-40.000000, -40.000000)" id="Rectangle">
                            <rect x="0" y="0" width="101" height="101"></rect>
                        </g>
                    </g>
                </g>
            </g>
        </g>
    </g>
</svg>