<?xml version="1.0" encoding="UTF-8"?>
<svg width="24px" height="24px" viewBox="0 0 24 24" version="1.1" xmlns="http://www.w3.org/2000/svg" xmlns:xlink="http://www.w3.org/1999/xlink">
    <!-- Generator: Sketch 52.1 (67048) - http://www.bohemiancoding.com/sketch -->
    <title>icon_content_flower</title>
    <desc>Created with Sketch.</desc>
    <defs>
        <path d="M11.2190477,18.1326848 C11.1748917,18.159882 11.1272136,18.1832949 11.076196,18.2022729 C8.06665556,19.321789 5.52173929,17.5814303 5.4141474,15.2850846 C5.35729164,14.0716057 6.24053492,13.240081 7.50321795,13.5861623 C8.51806484,13.8643157 9.76107896,14.8945953 11.2190477,16.6983839 L11.2190477,12.2751491 C7.99921914,11.8806541 5.504762,9.13575046 5.504762,5.80952381 L5.504762,2 C5.504762,1.28727612 6.36647554,0.930342686 6.87044743,1.43431458 L9.16190486,3.72577201 L11.4533623,1.43431458 C11.7657817,1.12189514 12.2723137,1.12189514 12.5847331,1.43431458 L14.8761906,3.72577201 L17.167648,1.43431458 C17.6716199,0.930342686 18.5333334,1.28727612 18.5333334,2 L18.5333334,5.80952381 C18.5333334,9.13575046 16.0388763,11.8806541 12.8190477,12.2751491 L12.8190477,18.3602006 C13.9360114,16.8246713 15.0075684,15.8488068 15.9957996,15.4313343 C17.3631319,14.8537127 18.5871187,15.4136021 18.8837186,16.6903972 C19.4531529,19.1416822 16.8286818,21.4913598 12.8190477,21.2854482 L12.8190477,23 C12.8190477,23.4418278 12.4608755,23.8 12.0190477,23.8 C11.5772199,23.8 11.2190477,23.4418278 11.2190477,23 L11.2190477,18.1326848 Z M7.104762,3.93137085 L7.104762,5.80952381 C7.104762,8.5229341 9.30563742,10.7238095 12.0190477,10.7238095 C14.732458,10.7238095 16.9333334,8.5229341 16.9333334,5.80952381 L16.9333334,3.93137085 L15.441876,5.42282828 C15.1294566,5.73524772 14.6229246,5.73524772 14.3105051,5.42282828 L12.0190477,3.13137085 L9.72759028,5.42282828 C9.41517085,5.73524772 8.90863887,5.73524772 8.59621943,5.42282828 L7.104762,3.93137085 Z M17.3252171,17.0524377 C17.2608943,16.7755423 17.0998143,16.7018594 16.6184325,16.9052163 C15.8589956,17.226036 14.8998669,18.1460996 13.8409758,19.6857062 C16.2794241,19.5300166 17.5936,18.2077645 17.3252171,17.0524377 Z M7.01239408,15.2102011 C7.05768281,16.1768035 7.97844758,17.0047052 9.33666714,16.9512648 C8.37005246,15.8679561 7.59148671,15.2693649 7.08028172,15.1292518 C6.93312641,15.0889188 7.00360286,15.0225691 7.01239408,15.2102011 Z" id="path-1"></path>
    </defs>
    <g id="保留" stroke="none" stroke-width="1" fill="none" fill-rule="evenodd">
        <g id="寄件/上门取件/大陆件/同城/3信息填写_弹框1-copy" transform="translate(-17.000000, -290.000000)">
            <g id="Group" transform="translate(17.000000, 290.000000)">
                <g id="icon/content/flower_24px">
                    <mask id="mask-2" fill="white">
                        <use xlink:href="#path-1"></use>
                    </mask>
                    <use id="Combined-Shape" fill="#000000" fill-rule="nonzero" xlink:href="#path-1"></use>
                    <g id="✱-/-Color-/-Icons-/-Black-/-dark" mask="url(#mask-2)" fill="#1C1C1C" fill-rule="evenodd">
                        <g transform="translate(-30.000000, -38.000000)" id="Rectangle">
                            <rect x="0" y="0" width="101" height="101"></rect>
                        </g>
                    </g>
                </g>
            </g>
        </g>
    </g>
</svg>