<?xml version="1.0" encoding="UTF-8"?>
<svg width="24px" height="24px" viewBox="0 0 24 24" version="1.1" xmlns="http://www.w3.org/2000/svg" xmlns:xlink="http://www.w3.org/1999/xlink">
    <!-- Generator: Sketch 52.1 (67048) - http://www.bohemiancoding.com/sketch -->
    <title>icon_content_food_selected</title>
    <desc>Created with Sketch.</desc>
    <defs>
        <path d="M14.7090909,5.74545455 L16.7454545,5.74545455 L16.7454545,2 C16.7454545,1.5581722 17.1036267,1.2 17.5454545,1.2 C17.9872823,1.2 18.3454545,1.5581722 18.3454545,2 L18.3454545,5.74545455 L20.3818182,5.74545455 L20.3818182,2 C20.3818182,1.5581722 20.7399904,1.2 21.1818182,1.2 C21.623646,1.2 21.9818182,1.5581722 21.9818182,2 L21.9818182,9.27272727 C21.9818182,10.4392077 21.218099,11.428065 20.1636364,11.7663234 L20.1636364,20.1818182 C20.1636364,21.6272823 18.9909187,22.8 17.5454545,22.8 C16.0999904,22.8 14.9272727,21.6272823 14.9272727,20.1818182 L14.9272727,11.7663234 C13.8728101,11.428065 13.1090909,10.4392077 13.1090909,9.27272727 L13.1090909,2 C13.1090909,1.5581722 13.4672631,1.2 13.9090909,1.2 C14.3509187,1.2 14.7090909,1.5581722 14.7090909,2 L14.7090909,5.74545455 Z M14.7090909,7.34545455 L14.7090909,9.27272727 C14.7090909,9.83453584 15.1654642,10.2909091 15.7272727,10.2909091 L19.3636364,10.2909091 C19.9254449,10.2909091 20.3818182,9.83453584 20.3818182,9.27272727 L20.3818182,7.34545455 L14.7090909,7.34545455 Z M16.5272727,11.8909091 L16.5272727,20.1818182 C16.5272727,20.7436267 16.983646,21.2 17.5454545,21.2 C18.1072631,21.2 18.5636364,20.7436267 18.5636364,20.1818182 L18.5636364,11.8909091 L16.5272727,11.8909091 Z M5.61818182,11.7734992 L5.61818182,20.1816364 C5.61818182,20.7439782 6.07417921,21.1998182 6.63636364,21.1998182 C7.19854806,21.1998182 7.65454545,20.7439782 7.65454545,20.1816364 L7.65454545,11.7734992 C7.32760195,11.8502881 6.98672368,11.8909091 6.63636364,11.8909091 C6.2860036,11.8909091 5.94512532,11.8502881 5.61818182,11.7734992 Z M9.25454545,11.036247 L9.25454545,20.1816364 C9.25454545,21.6277576 8.08207998,22.7998182 6.63636364,22.7998182 C5.19064729,22.7998182 4.01818182,21.6277576 4.01818182,20.1816364 L4.01818182,11.036247 C2.91587638,10.2290782 2.2,8.9253619 2.2,7.45454545 L2.2,5.63636364 C2.2,3.18635402 4.18635402,1.2 6.63636364,1.2 C9.08637325,1.2 11.0727273,3.18635402 11.0727273,5.63636364 L11.0727273,7.45454545 C11.0727273,8.9253619 10.3568509,10.2290782 9.25454545,11.036247 Z M6.63636364,10.2909091 C8.20271765,10.2909091 9.47272727,9.02089947 9.47272727,7.45454545 L9.47272727,5.63636364 C9.47272727,4.07000962 8.20271765,2.8 6.63636364,2.8 C5.07000962,2.8 3.8,4.07000962 3.8,5.63636364 L3.8,7.45454545 C3.8,9.02089947 5.07000962,10.2909091 6.63636364,10.2909091 Z" id="path-1"></path>
    </defs>
    <g id="保留" stroke="none" stroke-width="1" fill="none" fill-rule="evenodd">
        <g id="寄件/上门取件/大陆件/普通物品/5完善信息首页_托寄物1-copy" transform="translate(-48.000000, -543.000000)">
            <g id="Group-8" transform="translate(48.000000, 543.000000)">
                <g id="icon/content/eat_24px">
                    <mask id="mask-2" fill="white">
                        <use xlink:href="#path-1"></use>
                    </mask>
                    <use id="Combined-Shape" fill="#000000" fill-rule="nonzero" xlink:href="#path-1"></use>
                    <g id="✱-/-Color-/-Icons-/-red-/-active" mask="url(#mask-2)" fill="#DC1E32" fill-rule="evenodd">
                        <g transform="translate(-36.000000, -41.000000)" id="Rectangle">
                            <rect x="0" y="0" width="101" height="101"></rect>
                        </g>
                    </g>
                </g>
            </g>
        </g>
    </g>
</svg>