<?xml version="1.0" encoding="UTF-8"?>
<svg width="24px" height="24px" viewBox="0 0 24 24" version="1.1" xmlns="http://www.w3.org/2000/svg" xmlns:xlink="http://www.w3.org/1999/xlink">
    <!-- Generator: Sketch 52.1 (67048) - http://www.bohemiancoding.com/sketch -->
    <title>icon_content_fresh_selected</title>
    <desc>Created with Sketch.</desc>
    <defs>
        <path d="M21.2,4.83636364 L21.2,4.72727273 C21.2,3.66273689 20.3372631,2.8 19.2727273,2.8 L9.27272727,2.8 C8.83089947,2.8 8.47272727,2.4418278 8.47272727,2 C8.47272727,1.5581722 8.83089947,1.2 9.27272727,1.2 L19.2727273,1.2 C21.2209187,1.2 22.8,2.77908129 22.8,4.72727273 L22.8,5.63636364 C22.8,10.2944463 19.1911051,12.8 15.6363636,12.8 L14.2727273,12.8 C12.9283952,12.8 11.7317951,13.4312492 10.9631038,14.4135706 C10.955764,14.4235046 10.9481649,14.4333074 10.9403066,14.4429698 C10.3961747,15.1511078 10.0727273,16.0377055 10.0727273,17 C10.0727273,18.7339398 11.2553232,20.4529595 12.8169038,21.1142188 L19.757819,16.7761468 C20.2906574,16.4431228 20.9818182,16.826197 20.9818182,17.4545455 L20.9818182,22 C20.9818182,22.4418278 20.623646,22.8 20.1818182,22.8 L12.9090909,22.8 L10.1818182,22.8 C5.22089947,22.8 1.2,18.7791005 1.2,13.8181818 C1.2,11.3404218 2.20303823,9.09715533 3.82526055,7.47223664 C3.82676803,7.47070088 3.82828295,7.46916969 3.82980531,7.4676431 C3.83186474,7.46557797 3.83393264,7.46352644 3.83600891,7.46148851 C5.46091678,5.83934594 7.70412722,4.83636364 10.1818182,4.83636364 L21.2,4.83636364 Z M8.60872141,15.7454545 C8.74341435,15.134422 8.97443997,14.5595725 9.28506489,14.0376396 L4.42758865,9.19358388 C3.40935691,10.4589751 2.8,12.0673352 2.8,13.8181818 C2.8,14.4849626 2.88837749,15.131078 3.05405909,15.7454545 L8.60872141,15.7454545 Z M8.48366843,17.3454545 L3.69548101,17.3454545 C4.94680161,19.6419195 7.38214599,21.2 10.1818182,21.2 C9.22214292,20.1624974 8.57434884,18.7814883 8.48366843,17.3454545 Z M10.2916119,12.7817877 C10.8149438,12.2877009 11.4302168,11.8899572 12.1090909,11.6168968 L12.1090909,6.43636364 L10.1818182,6.43636364 C8.43186121,6.43636364 6.82424611,7.04510142 5.55914952,8.06240037 L10.2916119,12.7817877 Z M13.7090909,11.2270264 C13.8945528,11.2091474 14.0825702,11.2 14.2727273,11.2 L15.6363636,11.2 C18.1943998,11.2 20.7737012,9.54478221 21.1524419,6.43636364 L13.7090909,6.43636364 L13.7090909,11.2270264 Z M19.3818182,21.2 L19.3818182,18.8979436 L15.6985279,21.2 L19.3818182,21.2 Z M15.6363636,9.16363636 C15.1945358,9.16363636 14.8363636,8.80546416 14.8363636,8.36363636 C14.8363636,7.92180856 15.1945358,7.56363636 15.6363636,7.56363636 L16.5454545,7.56363636 C16.9872823,7.56363636 17.3454545,7.92180856 17.3454545,8.36363636 C17.3454545,8.80546416 16.9872823,9.16363636 16.5454545,9.16363636 L15.6363636,9.16363636 Z" id="path-1"></path>
    </defs>
    <g id="保留" stroke="none" stroke-width="1" fill="none" fill-rule="evenodd">
        <g id="寄件/上门取件/大陆件/同城/3信息填写_弹框1-copy" transform="translate(-314.000000, -290.000000)">
            <g id="Group-8" transform="translate(314.000000, 290.000000)">
                <g id="icon/content/seafood_24px">
                    <mask id="mask-2" fill="white">
                        <use xlink:href="#path-1"></use>
                    </mask>
                    <use id="Combined-Shape" fill="#000000" fill-rule="nonzero" xlink:href="#path-1"></use>
                    <g id="✱-/-Color-/-Icons-/-Black-/-white" mask="url(#mask-2)" fill="#FFFFFF" fill-rule="evenodd">
                        <g transform="translate(-43.000000, -36.000000)" id="Rectangle">
                            <rect x="0" y="0" width="101" height="101"></rect>
                        </g>
                    </g>
                </g>
            </g>
        </g>
    </g>
</svg>