<?xml version="1.0" encoding="UTF-8"?>
<svg width="24px" height="24px" viewBox="0 0 24 24" version="1.1" xmlns="http://www.w3.org/2000/svg" xmlns:xlink="http://www.w3.org/1999/xlink">
    <!-- Generator: Sketch 52.1 (67048) - http://www.bohemiancoding.com/sketch -->
    <title>icon_content_medcine_selected</title>
    <desc>Created with Sketch.</desc>
    <defs>
        <path d="M2.10050506,16.2426407 L16.2426407,2.10050506 C17.8047379,0.538407896 20.3373978,0.538407896 21.8994949,2.10050506 C23.4615921,3.66260223 23.4615921,6.19526215 21.8994949,7.75735931 L7.75735931,21.8994949 C6.19526215,23.4615921 3.66260223,23.4615921 2.10050506,21.8994949 C0.538407896,20.3373978 0.538407896,17.8047379 2.10050506,16.2426407 Z M3.23187591,17.3740115 C2.29461761,18.3112698 2.29461761,19.8308658 3.23187591,20.7681241 C4.16913421,21.7053824 5.68873016,21.7053824 6.62598846,20.7681241 L20.7681241,6.62598846 C21.7053824,5.68873016 21.7053824,4.16913421 20.7681241,3.23187591 C19.8308658,2.29461761 18.3112698,2.29461761 17.3740115,3.23187591 L3.23187591,17.3740115 Z M7.75735931,13.4142136 L13.4142136,7.75735931 L16.2426407,10.5857864 L10.5857864,16.2426407 L7.75735931,13.4142136 Z M20.131728,4.5753788 C19.9364658,4.77064094 19.6198833,4.77064094 19.4246212,4.5753788 C19.2293591,4.38011665 19.2293591,4.06353416 19.4246212,3.86827202 C19.6198833,3.67300987 19.9364658,3.67300987 20.131728,3.86827202 C20.3269901,4.06353416 20.3269901,4.38011665 20.131728,4.5753788 Z M18.0104076,5.28248558 C17.8151455,5.47774772 17.498563,5.47774772 17.3033009,5.28248558 C17.1080387,5.08722343 17.1080387,4.77064094 17.3033009,4.5753788 C17.498563,4.38011665 17.8151455,4.38011665 18.0104076,4.5753788 C18.2056698,4.77064094 18.2056698,5.08722343 18.0104076,5.28248558 Z M19.4246212,6.69669914 C19.2293591,6.89196129 18.9127766,6.89196129 18.7175144,6.69669914 C18.5222523,6.501437 18.5222523,6.18485451 18.7175144,5.98959236 C18.9127766,5.79433021 19.2293591,5.79433021 19.4246212,5.98959236 C19.6198833,6.18485451 19.6198833,6.501437 19.4246212,6.69669914 Z M3.86827202,20.131728 C3.67300987,19.9364658 3.67300987,19.6198833 3.86827202,19.4246212 C4.06353416,19.2293591 4.38011665,19.2293591 4.5753788,19.4246212 C4.77064094,19.6198833 4.77064094,19.9364658 4.5753788,20.131728 C4.38011665,20.3269901 4.06353416,20.3269901 3.86827202,20.131728 Z M4.5753788,18.0104076 C4.38011665,17.8151455 4.38011665,17.498563 4.5753788,17.3033009 C4.77064094,17.1080387 5.08722343,17.1080387 5.28248558,17.3033009 C5.47774772,17.498563 5.47774772,17.8151455 5.28248558,18.0104076 C5.08722343,18.2056698 4.77064094,18.2056698 4.5753788,18.0104076 Z M5.98959236,19.4246212 C5.79433021,19.2293591 5.79433021,18.9127766 5.98959236,18.7175144 C6.18485451,18.5222523 6.501437,18.5222523 6.69669914,18.7175144 C6.89196129,18.9127766 6.89196129,19.2293591 6.69669914,19.4246212 C6.501437,19.6198833 6.18485451,19.6198833 5.98959236,19.4246212 Z" id="path-1"></path>
    </defs>
    <g id="保留" stroke="none" stroke-width="1" fill="none" fill-rule="evenodd">
        <g id="寄件/上门取件/大陆件/普通物品/5完善信息首页_托寄物1-copy" transform="translate(-148.000000, -544.000000)">
            <g id="Group-10" transform="translate(148.000000, 544.000000)">
                <g id="icon/content/medical_24px">
                    <mask id="mask-2" fill="white">
                        <use xlink:href="#path-1"></use>
                    </mask>
                    <use id="Combined-Shape" fill="#333333" fill-rule="nonzero" xlink:href="#path-1"></use>
                    <g id="✱-/-Color-/-Icons-/-red-/-active" mask="url(#mask-2)" fill="#DC1E32" fill-rule="evenodd">
                        <g transform="translate(-38.000000, -40.000000)" id="Rectangle">
                            <rect x="0" y="0" width="101" height="101"></rect>
                        </g>
                    </g>
                </g>
            </g>
        </g>
    </g>
</svg>