<?xml version="1.0" encoding="UTF-8"?>
<svg width="24px" height="24px" viewBox="0 0 24 24" version="1.1" xmlns="http://www.w3.org/2000/svg" xmlns:xlink="http://www.w3.org/1999/xlink">
    <!-- Generator: Sketch 52.1 (67048) - http://www.bohemiancoding.com/sketch -->
    <title>icon_content_other_selected2</title>
    <desc>Created with Sketch.</desc>
    <defs>
        <path d="M16.5,1 L4.5,1 C3.4,1 2.5,1.9 2.5,3 L2.5,17 L4.5,17 L4.5,3 L16.5,3 L16.5,1 Z M19.5,5 L8.5,5 C7.4,5 6.5,5.9 6.5,7 L6.5,21 C6.5,22.1 7.4,23 8.5,23 L19.5,23 C20.6,23 21.5,22.1 21.5,21 L21.5,7 C21.5,5.9 20.6,5 19.5,5 Z M19.5,21 L8.5,21 L8.5,7 L19.5,7 L19.5,21 Z" id="path-1"></path>
    </defs>
    <g id="保留" stroke="none" stroke-width="1" fill="none" fill-rule="evenodd">
        <g id="寄件/上门取件/大陆件/同城/3信息填写_弹框1-copy" transform="translate(-148.000000, -330.000000)">
            <g id="Group-7-Copy" transform="translate(148.000000, 330.000000)">
                <g id="icon/content/copy_24px">
                    <mask id="mask-2" fill="white">
                        <use xlink:href="#path-1"></use>
                    </mask>
                    <g fill-rule="nonzero"></g>
                    <g id="✱-/-Color-/-Icons-/-Black-/-white" mask="url(#mask-2)" fill="#FFFFFF" fill-rule="evenodd">
                        <g transform="translate(-37.000000, -32.000000)" id="Rectangle">
                            <rect x="0" y="0" width="101" height="101"></rect>
                        </g>
                    </g>
                </g>
            </g>
        </g>
    </g>
</svg>