<?xml version="1.0" encoding="UTF-8"?>
<svg width="24px" height="24px" viewBox="0 0 24 24" version="1.1" xmlns="http://www.w3.org/2000/svg" xmlns:xlink="http://www.w3.org/1999/xlink">
    <!-- Generator: Sketch 52.1 (67048) - http://www.bohemiancoding.com/sketch -->
    <title>icon_default_set</title>
    <desc>Created with Sketch.</desc>
    <defs>
        <path d="M10.9218832,23.2813729 C10.944456,23.2615097 11.0143499,23.2350716 11.1393989,23.1696677 L15.5788075,20.8477448 C15.8427727,20.7096843 16.1576248,20.7096843 16.42159,20.8477448 L20.8609986,23.1696677 C20.9853325,23.2346975 21.0553576,23.2611704 21.0784577,23.2809304 C21.0136036,23.2933228 21.0094013,23.2218003 20.9861819,23.0871175 L20.1383303,18.1692057 C20.0873007,17.8732115 20.1857448,17.5711146 20.4013691,17.3620146 L23.9929261,13.8791302 C24.0896212,13.7853608 24.1355916,13.7298827 24.1616495,13.7148165 C24.1533294,13.7832295 24.0819303,13.7644166 23.9447916,13.7445917 L18.9813819,13.027078 C18.685626,12.9843234 18.4297608,12.79897 18.2969594,12.5312699 L16.0772551,8.05680601 C15.9766218,7.85395014 15.9330947,7.81838887 15.9997947,7.81845173 C16.0669423,7.81851501 16.0239632,7.85357211 15.9231424,8.05680601 L13.7034381,12.5312699 C13.5706367,12.79897 13.3147715,12.9843234 13.0190156,13.027078 L8.05560592,13.7445917 C7.82934021,13.7773008 7.7816148,13.8076731 7.80339529,13.741199 C7.82583084,13.6727256 7.84503635,13.72161 8.00747144,13.8791302 L11.5990284,17.3620146 C11.8146527,17.5711146 11.9130968,17.8732115 11.8620672,18.1692057 L11.0142156,23.0871175 C10.9911795,23.2207368 10.98696,23.292376 10.9748165,23.319171 L10.9218832,23.2813729 Z M16.0001987,22.6795038 L11.9821814,24.7810285 C10.3323361,25.6439393 8.90620676,24.6110736 9.22220022,22.7781727 L9.98850136,18.3332894 L6.74153355,15.1845677 C5.40218157,13.8857415 5.95074731,12.2115173 7.79543387,11.9448483 L12.28651,11.2956154 L14.2941254,7.24867881 C15.1204675,5.58294437 16.880753,5.5846033 17.7062721,7.24867881 L19.7138875,11.2956154 L24.2049636,11.9448483 C26.0514956,12.2117841 26.5968733,13.8870435 25.2588639,15.1845677 L22.0118961,18.3332894 L22.7781973,22.7781727 C23.0945071,24.6129088 21.6664192,25.6430804 20.0182161,24.7810285 L16.0001987,22.6795038 Z" id="path-1"></path>
    </defs>
    <g id="Symbols" stroke="none" stroke-width="1" fill="none" fill-rule="evenodd">
        <g id="slot-btn/function/setDefault" transform="translate(-16.000000, -1.000000)">
            <g id="slot-btn/function" transform="translate(0.000000, 1.000000)">
                <g id="icon/newicons/fav_star" transform="translate(16.000000, 0.000000)">
                    <g id="_/Color/System/black" transform="translate(-4.000000, -4.000000)">
                        <mask id="mask-2" fill="white">
                            <use xlink:href="#path-1"></use>
                        </mask>
                        <use id="Combined-Shape" fill="#000000" fill-rule="nonzero" xlink:href="#path-1"></use>
                        <g id="✱-/-Color-/-Icons-/-Black-/-dark" mask="url(#mask-2)" fill="#1C1C1C">
                            <rect id="Rectangle" x="0" y="0" width="32" height="32"></rect>
                        </g>
                    </g>
                </g>
            </g>
        </g>
    </g>
</svg>