<?xml version="1.0" encoding="UTF-8"?>
<svg width="24px" height="24px" viewBox="0 0 24 24" version="1.1" xmlns="http://www.w3.org/2000/svg" xmlns:xlink="http://www.w3.org/1999/xlink">
    <!-- Generator: Sketch 52.1 (67048) - http://www.bohemiancoding.com/sketch -->
    <title>icon_payment_1_selected</title>
    <desc>Created with Sketch.</desc>
    <defs>
        <path d="M23.7677807,8.22528594 C23.750583,8.28409047 23.7265006,8.34130881 23.6955336,8.39567094 C23.6513695,8.47402249 23.5942945,8.54527594 23.5259841,8.60538677 L20.5656854,11.5656854 C20.253266,11.8781049 19.746734,11.8781049 19.4343146,11.5656854 C19.1218951,11.253266 19.1218951,10.746734 19.4343146,10.4343146 L21.0686292,8.8 L17,8.8 C16.5581722,8.8 16.2,8.4418278 16.2,8 C16.2,7.5581722 16.5581722,7.2 17,7.2 L21.0686292,7.2 L19.4343146,5.56568542 C19.1218951,5.25326599 19.1218951,4.74673401 19.4343146,4.43431458 C19.746734,4.12189514 20.253266,4.12189514 20.5656854,4.43431458 L23.5656854,7.43431458 C23.7937517,7.66238081 23.8455128,7.96370906 23.7677807,8.22528594 Z M2.2,22 L2.2,21 C2.2,18.3491722 4.3491722,16.2 7,16.2 L13,16.2 C15.6508278,16.2 17.8,18.3491722 17.8,21 L17.8,22 C17.8,22.4418278 17.4418278,22.8 17,22.8 L3,22.8 C2.5581722,22.8 2.2,22.4418278 2.2,22 Z M3.8,21.2 L16.2,21.2 L16.2,21 C16.2,19.2328278 14.7671722,17.8 13,17.8 L7,17.8 C5.2328278,17.8 3.8,19.2328278 3.8,21 L3.8,21.2 Z M10,14.8 C7.3491722,14.8 5.2,12.6508278 5.2,10 L5.2,8 C5.2,5.3491722 7.3491722,3.2 10,3.2 C12.6508278,3.2 14.8,5.3491722 14.8,8 L14.8,10 C14.8,12.6508278 12.6508278,14.8 10,14.8 Z M10,13.2 C11.7671722,13.2 13.2,11.7671722 13.2,10 L13.2,8 C13.2,6.2328278 11.7671722,4.8 10,4.8 C8.2328278,4.8 6.8,6.2328278 6.8,8 L6.8,10 C6.8,11.7671722 8.2328278,13.2 10,13.2 Z" id="path-1"></path>
    </defs>
    <g id="保留" stroke="none" stroke-width="1" fill="none" fill-rule="evenodd">
        <g id="寄件/上门取件/大陆件/普通物品/5完善信息首页_付款方式-copy" transform="translate(-44.000000, -486.000000)">
            <g id="Group" transform="translate(44.000000, 486.000000)">
                <g id="icon/content/寄付现结_24px">
                    <mask id="mask-2" fill="white">
                        <use xlink:href="#path-1"></use>
                    </mask>
                    <use id="Combined-Shape" fill="#444444" fill-rule="nonzero" xlink:href="#path-1"></use>
                    <g id="✱-/-Color-/-Icons-/-red-/-active" mask="url(#mask-2)" fill="#DC1E32" fill-rule="evenodd">
                        <g transform="translate(-36.000000, -36.000000)" id="Rectangle">
                            <rect x="0" y="0" width="101" height="101"></rect>
                        </g>
                    </g>
                </g>
            </g>
        </g>
    </g>
</svg>