<?xml version="1.0" encoding="UTF-8"?>
<svg width="24px" height="24px" viewBox="0 0 24 24" version="1.1" xmlns="http://www.w3.org/2000/svg" xmlns:xlink="http://www.w3.org/1999/xlink">
    <!-- Generator: Sketch 52.1 (67048) - http://www.bohemiancoding.com/sketch -->
    <title>icon_payment_3_selected</title>
    <desc>Created with Sketch.</desc>
    <defs>
        <path d="M7.76778066,8.22528594 C7.75058298,8.28409047 7.72650061,8.34130881 7.69553356,8.39567094 C7.65136947,8.47402249 7.59429454,8.54527594 7.52598408,8.60538677 L4.56568542,11.5656854 C4.25326599,11.8781049 3.74673401,11.8781049 3.43431458,11.5656854 C3.12189514,11.253266 3.12189514,10.746734 3.43431458,10.4343146 L5.06862915,8.8 L1,8.8 C0.5581722,8.8 0.2,8.4418278 0.2,8 C0.2,7.5581722 0.5581722,7.2 1,7.2 L5.06862915,7.2 L3.43431458,5.56568542 C3.12189514,5.25326599 3.12189514,4.74673401 3.43431458,4.43431458 C3.74673401,4.12189514 4.25326599,4.12189514 4.56568542,4.43431458 L7.56568542,7.43431458 C7.79375166,7.66238081 7.84551284,7.96370906 7.76778066,8.22528594 Z M6.2,22 L6.2,21 C6.2,18.3491722 8.3491722,16.2 11,16.2 L17,16.2 C19.6508278,16.2 21.8,18.3491722 21.8,21 L21.8,22 C21.8,22.4418278 21.4418278,22.8 21,22.8 L7,22.8 C6.5581722,22.8 6.2,22.4418278 6.2,22 Z M7.8,21.2 L20.2,21.2 L20.2,21 C20.2,19.2328278 18.7671722,17.8 17,17.8 L11,17.8 C9.2328278,17.8 7.8,19.2328278 7.8,21 L7.8,21.2 Z M14,14.8 C11.3491722,14.8 9.2,12.6508278 9.2,10 L9.2,8 C9.2,5.3491722 11.3491722,3.2 14,3.2 C16.6508278,3.2 18.8,5.3491722 18.8,8 L18.8,10 C18.8,12.6508278 16.6508278,14.8 14,14.8 Z M14,13.2 C15.7671722,13.2 17.2,11.7671722 17.2,10 L17.2,8 C17.2,6.2328278 15.7671722,4.8 14,4.8 C12.2328278,4.8 10.8,6.2328278 10.8,8 L10.8,10 C10.8,11.7671722 12.2328278,13.2 14,13.2 Z" id="path-1"></path>
    </defs>
    <g id="保留" stroke="none" stroke-width="1" fill="none" fill-rule="evenodd">
        <g id="寄件/上门取件/大陆件/普通物品/5完善信息首页_付款方式-copy" transform="translate(-304.000000, -493.000000)">
            <g id="Group-6" transform="translate(304.000000, 493.000000)">
                <g id="icon/content/到付_24px">
                    <mask id="mask-2" fill="white">
                        <use xlink:href="#path-1"></use>
                    </mask>
                    <use id="Combined-Shape" fill="#444444" fill-rule="nonzero" xlink:href="#path-1"></use>
                    <g id="✱-/-Color-/-Icons-/-Black-/-dark" mask="url(#mask-2)" fill="#1C1C1C" fill-rule="evenodd">
                        <g transform="translate(-36.000000, -36.000000)" id="Rectangle">
                            <rect x="0" y="0" width="101" height="101"></rect>
                        </g>
                    </g>
                </g>
            </g>
        </g>
    </g>
</svg>