<?xml version="1.0" encoding="UTF-8"?>
<svg width="53px" height="83px" viewBox="0 0 53 83" version="1.1" xmlns="http://www.w3.org/2000/svg" xmlns:xlink="http://www.w3.org/1999/xlink">
    <!-- Generator: Sketch 52.1 (67048) - http://www.bohemiancoding.com/sketch -->
    <title>icon_size_1_selected</title>
    <desc>Created with Sketch.</desc>
    <g id="Symbols" stroke="none" stroke-width="1" fill="none" fill-rule="evenodd">
        <g id="icon/快件规格/文件袋_selected">
            <g id="icon_size_1_selected">
                <rect id="Rectangle-5" fill="#333333" x="0" y="0" width="53" height="83" rx="4"></rect>
                <path d="M35.8886089,54.2077541 C36.0579009,54.183829 36.2361301,54.2137598 36.3961624,54.3049782 C36.6893749,54.4721093 36.8366851,54.7966371 36.7923835,55.1116682 C36.9252802,55.3792984 37,55.6809233 37,56 L37,80 C37,81.1045695 36.1045695,82 35,82 L18,82 C16.8954305,82 16,81.1045695 16,80 L16,56 C16,55.6809233 16.0747198,55.3792984 16.2076165,55.1116682 C16.1633149,54.7966371 16.3106251,54.4721093 16.6038376,54.3049782 C16.7638699,54.2137598 16.9420991,54.183829 17.1113911,54.2077541 C17.3790902,54.0747714 17.6808132,54 18,54 L35,54 C35.3191868,54 35.6209098,54.0747714 35.8886089,54.2077541 Z M18.2628344,55.6 L20.3148344,59.2 L32.6851656,59.2 L34.7371656,55.6 L18.2628344,55.6 Z M35.4,57.6681305 L33.8450218,60.3961624 C33.7027036,60.6458435 33.4373937,60.8 33.15,60.8 L19.85,60.8 C19.5626063,60.8 19.2972964,60.6458435 19.1549782,60.3961624 L17.6,57.6681305 L17.6,80 C17.6,80.2209139 17.7790861,80.4 18,80.4 L35,80.4 C35.2209139,80.4 35.4,80.2209139 35.4,80 L35.4,57.6681305 Z" id="Combined-Shape" fill="#FFFFFF" fill-rule="nonzero"></path>
            </g>
        </g>
    </g>
</svg>