<?xml version="1.0" encoding="UTF-8"?>
<svg width="16px" height="16px" viewBox="0 0 16 16" version="1.1" xmlns="http://www.w3.org/2000/svg" xmlns:xlink="http://www.w3.org/1999/xlink">
    <!-- Generator: Sketch 52.1 (67048) - http://www.bohemiancoding.com/sketch -->
    <title>icon_check_circle_uncheck</title>
    <desc>Created with Sketch.</desc>
    <g id="寄件通用" stroke="none" stroke-width="1" fill="none" fill-rule="evenodd">
        <g id="5完善信息首页_付款方式0904" transform="translate(-32.000000, -584.000000)" fill="#F2F2F2">
            <g id="content" transform="translate(0.000000, 218.000000)">
                <g id="免密" transform="translate(32.000000, 365.000000)">
                    <path d="M8,1 C9.46154577,1 10.8140963,1.36538096 12.0576923,2.09615385 C13.2628265,2.788465 14.211535,3.73717346 14.9038462,4.94230769 C15.634619,6.18590365 16,7.53845423 16,9 C16,10.4615458 15.634619,11.8140963 14.9038462,13.0576923 C14.211535,14.2628265 13.2628265,15.211535 12.0576923,15.9038462 C10.8140963,16.634619 9.46154577,17 8,17 C6.53845423,17 5.18590365,16.634619 3.94230769,15.9038462 C2.73717346,15.1987144 1.788465,14.2435958 1.09615385,13.0384615 C0.365380962,11.7948656 0,10.4487252 0,9 C0,7.55127481 0.365380962,6.20513442 1.09615385,4.96153846 C1.80128558,3.75640423 2.75640423,2.80128558 3.96153846,2.09615385 C5.20513442,1.36538096 6.55127481,1 8,1 Z M6.38461538,13.0192308 L13.5961538,5.80769231 L12.4615385,4.63461538 L6.38461538,10.7307692 L3.53846154,7.86538462 L2.40384615,9 L6.38461538,13.0192308 Z" id="icon_check_circle_uncheck"></path>
                </g>
            </g>
        </g>
    </g>
</svg>