<?xml version="1.0" encoding="UTF-8"?>
<svg width="48px" height="48px" viewBox="0 0 48 48" version="1.1" xmlns="http://www.w3.org/2000/svg" xmlns:xlink="http://www.w3.org/1999/xlink">
    <!-- Generator: Sketch 52.1 (67048) - http://www.bohemiancoding.com/sketch -->
    <title>icon_size_tc_1</title>
    <desc>Created with Sketch.</desc>
    <defs>
        <path d="M8.2,7.99339768 C8.2,6.99992616 9.01007555,6.2 10.007484,6.2 L22.992516,6.2 C23.9882175,6.2 24.8,7.00053651 24.8,7.99339768 L24.8,24.0066023 C24.8,25.0000738 23.9899245,25.8 22.992516,25.8 L10.007484,25.8 C9.01178249,25.8 8.2,24.9994635 8.2,24.0066023 L8.2,7.99339768 Z M9.8,7.99339768 L9.8,24.0066023 C9.8,24.1107731 9.89048037,24.2 10.007484,24.2 L22.992516,24.2 C23.110753,24.2 23.2,24.1118712 23.2,24.0066023 L23.2,7.99339768 C23.2,7.88922691 23.1095196,7.8 22.992516,7.8 L10.007484,7.8 C9.88924702,7.8 9.8,7.88812885 9.8,7.99339768 Z M21.5294626,8.35301113 C21.8867847,8.09314053 22.3871183,8.17214056 22.6469889,8.52946264 C22.9068595,8.88678473 22.8278594,9.38711826 22.4705374,9.64698887 L16.9705374,13.6469889 C16.6900169,13.8510037 16.3099831,13.8510037 16.0294626,13.6469889 L10.5294626,9.64698887 C10.1721406,9.38711826 10.0931405,8.88678473 10.3530111,8.52946264 C10.6128817,8.17214056 11.1132153,8.09314053 11.4705374,8.35301113 L16.5,12.0108021 L21.5294626,8.35301113 Z" id="path-1"></path>
    </defs>
    <g id="保留" stroke="none" stroke-width="1" fill="none" fill-rule="evenodd">
        <g id="寄件/上门取件/大陆件/同城/3信息填写_弹框1-copy" transform="translate(-9.000000, -390.000000)">
            <g id="Group-9" transform="translate(9.000000, 390.000000)">
                <g id="icon_packet" transform="translate(8.000000, 8.000000)">
                    <mask id="mask-2" fill="white">
                        <use xlink:href="#path-1"></use>
                    </mask>
                    <use id="Combined-Shape" fill="#000000" fill-rule="nonzero" xlink:href="#path-1"></use>
                    <g id="✱-/-Color-/-Icons-/-Black-/-dark" mask="url(#mask-2)" fill="#1C1C1C" fill-rule="evenodd">
                        <rect id="Rectangle" x="0" y="0" width="32" height="32"></rect>
                    </g>
                </g>
            </g>
        </g>
    </g>
</svg>