<?xml version="1.0" encoding="UTF-8"?>
<svg width="48px" height="48px" viewBox="0 0 48 48" version="1.1" xmlns="http://www.w3.org/2000/svg" xmlns:xlink="http://www.w3.org/1999/xlink">
    <!-- Generator: Sketch 52.1 (67048) - http://www.bohemiancoding.com/sketch -->
    <title>icon_size_tc_2_selected</title>
    <desc>Created with Sketch.</desc>
    <defs>
        <path d="M6.15777088,9.76931893 L16.1577709,14.6130689 C16.4287981,14.7443477 16.6,15.0127017 16.6,15.30625 L16.6,24.99375 C16.6,25.5698711 15.97415,25.9445802 15.4422291,25.6869311 L5.44222912,20.8431811 C5.1712019,20.7119023 5,20.4435483 5,20.15 L5,10.4625 C5,9.88637893 5.62585,9.51166975 6.15777088,9.76931893 Z M6.6,11.7164763 L6.6,19.6710237 L15,23.7397737 L15,15.7852263 L6.6,11.7164763 Z M25.4422291,9.76931893 C25.97415,9.51166975 26.6,9.88637893 26.6,10.4625 L26.6,20.15 C26.6,20.4435483 26.4287981,20.7119023 26.1577709,20.8431811 L16.1577709,25.6869311 C15.62585,25.9445802 15,25.5698711 15,24.99375 L15,15.30625 C15,15.0127017 15.1712019,14.7443477 15.4422291,14.6130689 L25.4422291,9.76931893 Z M25,11.7164763 L16.6,15.7852263 L16.6,23.7397737 L25,19.6710237 L25,11.7164763 Z M16.1577709,4.92556893 L26.1577709,9.76931893 C26.7474097,10.0549252 26.7474097,10.8700748 26.1577709,11.1556811 L16.1577709,15.9994311 C15.9325489,16.108523 15.6674511,16.108523 15.4422291,15.9994311 L5.44222912,11.1556811 C4.85259029,10.8700748 4.85259029,10.0549252 5.44222912,9.76931893 L15.4422291,4.92556893 C15.6674511,4.81647702 15.9325489,4.81647702 16.1577709,4.92556893 Z M15.8,6.48522634 L7.58885438,10.4625 L15.8,14.4397737 L24.0111456,10.4625 L15.8,6.48522634 Z" id="path-1"></path>
    </defs>
    <g id="保留" stroke="none" stroke-width="1" fill="none" fill-rule="evenodd">
        <g id="寄件/上门取件/大陆件/同城/3信息填写_弹框1-copy" transform="translate(-140.000000, -391.000000)">
            <g id="Group-12" transform="translate(140.000000, 391.000000)">
                <g id="icon_box-2" transform="translate(8.000000, 8.000000)">
                    <mask id="mask-2" fill="white">
                        <use xlink:href="#path-1"></use>
                    </mask>
                    <use id="Combined-Shape" fill="#000000" fill-rule="nonzero" xlink:href="#path-1"></use>
                    <g id="✱-/-Color-/-Icons-/-Black-/-white" mask="url(#mask-2)" fill="#FFFFFF" fill-rule="evenodd">
                        <rect id="Rectangle" x="0" y="0" width="32" height="31"></rect>
                    </g>
                </g>
            </g>
        </g>
    </g>
</svg>