<?xml version="1.0" encoding="UTF-8"?>
<svg width="48px" height="48px" viewBox="0 0 48 48" version="1.1" xmlns="http://www.w3.org/2000/svg" xmlns:xlink="http://www.w3.org/1999/xlink">
    <!-- Generator: Sketch 52.1 (67048) - http://www.bohemiancoding.com/sketch -->
    <title>icon_size_tc_3</title>
    <desc>Created with Sketch.</desc>
    <defs>
        <path d="M16,15.1055728 L27.6422291,9.28445825 C28.17415,9.01849781 28.8,9.40529438 28.8,10 L28.8,22 C28.8,22.3030176 28.6287981,22.5800281 28.3577709,22.7155418 L16.3653557,28.7117494 C16.1510686,28.8221259 15.8867263,28.8377903 15.6422291,28.7155418 C15.6396768,28.714325 15.6371571,28.7130437 15.6346443,28.7117494 L3.64222912,22.7155418 C3.3712019,22.5800281 3.2,22.3030176 3.2,22 L3.2,10 C3.2,9.40529438 3.82585,9.01849781 4.35777088,9.28445825 L16,15.1055728 Z M15.2,16.4944272 L4.8,11.2944272 L4.8,21.5055728 L15.2,26.7055728 L15.2,16.4944272 Z M27.2,11.2944272 L16.8,16.4944272 L16.8,26.7055728 L27.2,21.5055728 L27.2,11.2944272 Z M16.3577709,3.28445825 L28.3577709,9.28445825 C28.9474097,9.57927766 28.9474097,10.4207223 28.3577709,10.7155418 L16.3577709,16.7155418 C16.1325489,16.8281527 15.8674511,16.8281527 15.6422291,16.7155418 L3.64222912,10.7155418 C3.05259029,10.4207223 3.05259029,9.57927766 3.64222912,9.28445825 L15.6422291,3.28445825 C15.8674511,3.17184725 16.1325489,3.17184725 16.3577709,3.28445825 Z M16,4.89442719 L5.78885438,10 L16,15.1055728 L26.2111456,10 L16,4.89442719 Z M21.2,13.4944272 L9.64222912,7.71554175 C9.24704633,7.51795035 9.08686685,7.03741192 9.28445825,6.64222912 C9.48204965,6.24704633 9.96258808,6.08686685 10.3577709,6.28445825 L22.3577709,12.2844582 C22.6287981,12.4199719 22.8,12.6969824 22.8,13 L22.8,17.8 C22.8,18.2418278 22.4418278,18.6 22,18.6 C21.5581722,18.6 21.2,18.2418278 21.2,17.8 L21.2,13.4944272 Z" id="path-1"></path>
    </defs>
    <g id="保留" stroke="none" stroke-width="1" fill="none" fill-rule="evenodd">
        <g id="寄件/上门取件/大陆件/同城/3信息填写_弹框1-copy" transform="translate(-184.000000, -390.000000)">
            <g id="Group-13" transform="translate(184.000000, 390.000000)">
                <g id="icon_box-3" transform="translate(8.000000, 8.000000)">
                    <mask id="mask-2" fill="white">
                        <use xlink:href="#path-1"></use>
                    </mask>
                    <use id="Combined-Shape" fill="#000000" fill-rule="nonzero" xlink:href="#path-1"></use>
                    <g id="✱-/-Color-/-Icons-/-Black-/-dark" mask="url(#mask-2)" fill="#1C1C1C" fill-rule="evenodd">
                        <rect id="Rectangle" x="0" y="0" width="32" height="32"></rect>
                    </g>
                </g>
            </g>
        </g>
    </g>
</svg>