<?xml version="1.0" encoding="UTF-8"?>
<svg width="48px" height="48px" viewBox="0 0 48 48" version="1.1" xmlns="http://www.w3.org/2000/svg" xmlns:xlink="http://www.w3.org/1999/xlink">
    <!-- Generator: Sketch 52.1 (67048) - http://www.bohemiancoding.com/sketch -->
    <title>icon_size_tc_4_selected</title>
    <desc>Created with Sketch.</desc>
    <defs>
        <path d="M20.55,10.8 L20.55,16 C20.55,16.4418278 20.1918278,16.8 19.75,16.8 L12.25,16.8 C11.8081722,16.8 11.45,16.4418278 11.45,16 L11.45,10.8 L1.8,10.8 L1.8,27.991212 C1.8,29.2125281 2.78493089,30.2 4.00001915,30.2 L27.9999809,30.2 C29.2119404,30.2 30.2,29.2100016 30.2,27.991212 L30.2,10.8 L20.55,10.8 Z M13.4753789,1.8 L6.70949627,1.8 L2.3928296,9.2 L11.6253789,9.2 L13.4753789,1.8 Z M18.5246211,1.8 L20.3746211,9.2 L29.6071704,9.2 L25.2905037,1.8 L18.5246211,1.8 Z M31.6320838,9.4958644 C31.735211,9.62271167 31.7974583,9.78142736 31.7999239,9.95394605 C31.8016179,9.98350686 31.8016199,10.0129599 31.8,10.0421832 L31.8,28.1597425 C31.8,30.1684887 30.0962989,31.8 27.9999809,31.8 L4.00001915,31.8 C1.90035114,31.8 0.2,30.1706931 0.2,28.1597425 L0.2,10.0421832 C0.198380067,10.0129599 0.198382065,9.98350686 0.200076103,9.95394605 C0.202541717,9.78142736 0.264789002,9.62271167 0.367916165,9.4958644 L5.55897688,0.59690318 C5.70234514,0.351129015 5.96546635,0.2 6.25,0.2 L25.75,0.2 C26.0345337,0.2 26.2976549,0.351129015 26.4410231,0.59690318 L31.6320838,9.4958644 Z M16.8753789,1.8 L15.1246211,1.8 L13.05,10.0984845 L13.05,15.2 L18.95,15.2 L18.95,10.0984845 L16.8753789,1.8 Z" id="path-1"></path>
    </defs>
    <g id="保留" stroke="none" stroke-width="1" fill="none" fill-rule="evenodd">
        <g id="寄件/上门取件/大陆件/同城/3信息填写_弹框1-copy" transform="translate(-314.000000, -390.000000)">
            <g id="Group-16" transform="translate(314.000000, 390.000000)">
                <g id="icon_box-4" transform="translate(8.000000, 8.000000)">
                    <mask id="mask-2" fill="white">
                        <use xlink:href="#path-1"></use>
                    </mask>
                    <use id="Combined-Shape" fill="#000000" fill-rule="nonzero" xlink:href="#path-1"></use>
                    <g id="✱-/-Color-/-Icons-/-Black-/-white" mask="url(#mask-2)" fill="#FFFFFF" fill-rule="evenodd">
                        <rect id="Rectangle" x="0" y="0" width="32" height="32"></rect>
                    </g>
                </g>
            </g>
        </g>
    </g>
</svg>