<?xml version="1.0" encoding="UTF-8"?>
<svg width="24px" height="24px" viewBox="0 0 24 24" version="1.1" xmlns="http://www.w3.org/2000/svg" xmlns:xlink="http://www.w3.org/1999/xlink">
    <!-- Generator: Sketch 52.1 (67048) - http://www.bohemiancoding.com/sketch -->
    <title>icon_VAS</title>
    <desc>Created with Sketch.</desc>
    <defs>
        <path d="M14.2252817,3.65185185 L9.77471828,3.65185185 C9.81016515,3.77595776 9.80982477,3.91015975 9.76626103,4.04192661 L8.57522452,7.64444444 L15.4247755,7.64444444 L14.233739,4.04192661 C14.1901752,3.91015975 14.1898349,3.77595776 14.2252817,3.65185185 Z M15.7752245,3.65185185 L17.0952245,7.64444444 L20.7055728,7.64444444 L18.5055728,3.65185185 L15.7752245,3.65185185 Z M13.6245062,17.7614194 L20.4454485,9.0962963 L17.0622611,9.0962963 L13.6245062,17.7614194 Z M15.3617389,9.0962963 L8.63826114,9.0962963 L12,17.569815 L15.3617389,9.0962963 Z M8.22477548,3.65185185 L5.49442719,3.65185185 L3.29442719,7.64444444 L6.90477548,7.64444444 L8.22477548,3.65185185 Z M10.3754938,17.7614194 L6.93773886,9.0962963 L3.55455146,9.0962963 L10.3754938,17.7614194 Z M5,2.2 L19,2.2 C19.3030176,2.2 19.5800281,2.35534987 19.7155418,2.60128198 L22.7155418,8.04572643 C22.8480636,8.286229 22.8232238,8.57350141 22.6509868,8.79230624 L12.6509868,21.4960099 C12.3319302,21.90133 11.6680698,21.90133 11.3490132,21.4960099 L1.34901322,8.79230624 C1.17677618,8.57350141 1.15193642,8.286229 1.28445825,8.04572643 L4.28445825,2.60128198 C4.41997186,2.35534987 4.69698235,2.2 5,2.2 Z" id="path-1"></path>
    </defs>
    <g id="上門取件" stroke="none" stroke-width="1" fill="none" fill-rule="evenodd">
        <g id="寄件/上门取件/大陆件/普通物品/5完善信息首页2" transform="translate(-151.000000, -453.000000)">
            <g id="shape" transform="translate(-305.000000, 144.000000)">
                <g id="快件信息" transform="translate(0.000000, 228.000000)">
                    <g id="选项" transform="translate(0.000000, 41.000000)">
                        <g id="3-copy-2" transform="translate(408.000000, 0.000000)">
                            <g id="Group" transform="translate(48.000000, 40.000000)">
                                <g id="icon/content/增值服务_24px">
                                    <mask id="mask-2" fill="white">
                                        <use xlink:href="#path-1"></use>
                                    </mask>
                                    <use id="Combined-Shape" fill="#000000" fill-rule="nonzero" xlink:href="#path-1"></use>
                                    <g id="✱-/-Color-/-Icons-/-Black-/-dark" mask="url(#mask-2)" fill="#1C1C1C" fill-rule="evenodd">
                                        <g transform="translate(-36.000000, -36.000000)" id="Rectangle">
                                            <rect x="0" y="0" width="101" height="101"></rect>
                                        </g>
                                    </g>
                                </g>
                            </g>
                        </g>
                    </g>
                </g>
            </g>
        </g>
    </g>
</svg>