<?xml version="1.0" encoding="UTF-8"?>
<svg width="24px" height="24px" viewBox="0 0 24 24" version="1.1" xmlns="http://www.w3.org/2000/svg" xmlns:xlink="http://www.w3.org/1999/xlink">
    <!-- Generator: Sketch 52.1 (67048) - http://www.bohemiancoding.com/sketch -->
    <title>icon_VAS1_1_selected</title>
    <desc>Created with Sketch.</desc>
    <defs>
        <path d="M18.7295285,16.9097992 C17.6400285,21.3467182 14.9387448,23.9758977 11.974285,21.9745867 C9.4422661,20.2652173 10.2684653,17.2952444 13.1643961,15.0651839 C14.4526423,14.0731482 15.9699188,13.3447286 17.5433073,12.9552939 C17.4361532,11.0162603 16.7608593,9.56771583 15.6377489,9.2568975 C14.0923165,8.82920252 12.6400358,9.93299657 9.98937115,13.1321395 C8.1117618,15.3982658 7.7326548,15.8295656 6.88569899,16.5379347 C5.59438837,17.6179493 4.35944341,17.9826881 3.13111845,17.3926212 C2.89798955,17.28063 2.67222608,17.1352377 2.45347306,16.9570538 C0.369718692,15.2597449 0.800481503,12.9680691 2.89074299,9.39661957 C3.08278134,9.06850021 3.28171021,8.73888665 3.56045379,8.28414144 C5.70678015,4.78260197 6.14477301,3.66016681 5.50223997,3.08574872 C4.64648309,2.32071066 2.72503823,3.50428695 2.23685118,4.65898252 C2.06479844,5.06593418 1.59542263,5.25635739 1.18847096,5.08430465 C0.781519291,4.91225191 0.591096085,4.4428761 0.763148823,4.03592443 C1.61164619,2.02899668 4.63657478,0.165693783 6.56861686,1.89292001 C7.50594004,2.73087752 7.5570417,3.91489972 6.98606843,5.37812102 C6.61731735,6.32311171 6.30451339,6.86906124 4.92457734,9.12030347 C4.65103493,9.56656344 4.45706661,9.88795765 4.27162397,10.2048075 C2.55388998,13.1397514 2.25468797,14.7315183 3.4639476,15.7165131 C3.58765063,15.8172746 3.70754597,15.8944875 3.82393745,15.9504001 C4.86343458,16.4497572 5.83816413,15.6345218 8.75732646,12.1113232 C11.8403271,8.39038482 13.6194312,7.03819139 16.0645043,7.71485996 C17.9526685,8.23740521 18.9643861,10.1881867 19.1384266,12.6807311 C20.4756423,12.5516523 21.8115385,12.6797052 23.0435589,13.1095904 C23.4607211,13.2551496 23.6808989,13.7113254 23.5353397,14.1284876 C23.3897806,14.5456499 22.9336047,14.7658277 22.5164425,14.6202685 C21.4674198,14.2542362 20.3072755,14.1577358 19.1391379,14.2908642 C19.0850396,15.1373971 18.9480954,16.0196996 18.7295285,16.9097992 Z M14.1405991,16.3328699 C11.9780637,17.9981668 11.4983057,19.7227731 12.8695339,20.6484912 C14.5413474,21.7771348 16.3093601,20.0563149 17.1756884,16.5282487 C17.3353019,15.8782327 17.4434961,15.2388332 17.5030437,14.6249657 C16.2991484,14.9794367 15.1392013,15.5638794 14.1405991,16.3328699 Z" id="path-1"></path>
    </defs>
    <g id="保留" stroke="none" stroke-width="1" fill="none" fill-rule="evenodd">
        <g id="寄件/上门取件/大陆件/普通物品/5完善信息首页_增值服务1-copy" transform="translate(-153.000000, -530.000000)">
            <g id="Group-3" transform="translate(153.000000, 530.000000)">
                <g id="icon/content/签名_24px">
                    <mask id="mask-2" fill="white">
                        <use xlink:href="#path-1"></use>
                    </mask>
                    <use id="Path-26" fill="#333333" fill-rule="nonzero" xlink:href="#path-1"></use>
                    <g id="✱-/-Color-/-Icons-/-red-/-active" mask="url(#mask-2)" fill="#DC1E32" fill-rule="evenodd">
                        <g transform="translate(-36.000000, -36.000000)" id="Rectangle">
                            <rect x="0" y="0" width="101" height="101"></rect>
                        </g>
                    </g>
                </g>
            </g>
        </g>
    </g>
</svg>