<?xml version="1.0" encoding="UTF-8"?>
<svg width="24px" height="24px" viewBox="0 0 24 24" version="1.1" xmlns="http://www.w3.org/2000/svg" xmlns:xlink="http://www.w3.org/1999/xlink">
    <!-- Generator: Sketch 52.1 (67048) - http://www.bohemiancoding.com/sketch -->
    <title>icon_VAS1_2_selected</title>
    <desc>Created with Sketch.</desc>
    <defs>
        <path d="M14.4,14.8 L9.6,14.8 L3,14.8 C2.88954305,14.8 2.8,14.8895431 2.8,15 L2.8,18.2 L21.2,18.2 L21.2,15 C21.2,14.8895431 21.1104569,14.8 21,14.8 L14.4,14.8 Z M8.77859628,13.2 C8.71759425,12.1501322 8.51994565,11.3037034 8.10645625,9.98468688 C8.07175247,9.87410859 8.07175247,9.87410859 8.03671797,9.76257189 C7.42680409,7.81947015 7.2,6.67136658 7.2,4.76898526 C7.2,3.68224137 9.8906158,2.19584961 12,2.19584961 C14.0841313,2.19584961 16.8,3.72021685 16.8,4.76898526 C16.8,6.65366551 16.5757672,7.78092053 15.9632566,9.73157072 C15.9361475,9.81786797 15.9361475,9.81786797 15.9092261,9.90361169 C15.4820215,11.2651664 15.2813221,12.1218832 15.2206756,13.2 L21,13.2 C21.9941125,13.2 22.8,14.0058875 22.8,15 L22.8,21 C22.8,21.9941125 21.9941125,22.8 21,22.8 L3,22.8 C2.00588745,22.8 1.2,21.9941125 1.2,21 L1.2,15 C1.2,14.0058875 2.00588745,13.2 3,13.2 L8.77859628,13.2 Z M21.2,19.8 L2.8,19.8 L2.8,21 C2.8,21.1104569 2.88954305,21.2 3,21.2 L21,21.2 C21.1104569,21.2 21.2,21.1104569 21.2,21 L21.2,19.8 Z M9.56328203,9.28340367 C9.59815288,9.39441913 9.59815288,9.39441913 9.63319629,9.50607967 C10.0957265,10.9815347 10.3188471,11.9588244 10.3812252,13.2 L13.618191,13.2 C13.680181,11.9293841 13.9062737,10.9427531 14.3826078,9.42461634 C14.4097327,9.3382245 14.4097327,9.3382245 14.4367434,9.25224054 C14.9744105,7.53994304 15.1780474,6.56922372 15.1982968,5.03480579 C15.1848795,5.02287115 15.1705341,5.01039482 15.1553358,4.99748152 C14.9659399,4.83655967 14.701836,4.65467613 14.4039935,4.48750258 C13.6374208,4.05723943 12.7935098,3.79584961 12,3.79584961 C11.1990493,3.79584961 10.3497187,4.05164527 9.59128708,4.47062987 C9.29302268,4.63540172 9.03171385,4.81445981 8.84875305,4.97204529 C8.83175189,4.98668851 8.8159406,5.00072273 8.80142477,5.01398273 C8.82012161,6.57991653 9.02531874,7.56952663 9.56328203,9.28340367 Z" id="path-1"></path>
    </defs>
    <g id="保留" stroke="none" stroke-width="1" fill="none" fill-rule="evenodd">
        <g id="寄件/上门取件/大陆件/普通物品/5完善信息首页_增值服务1-copy" transform="translate(-261.000000, -530.000000)">
            <g id="Group-5" transform="translate(261.000000, 530.000000)">
                <g id="icon/content/盖章_24px">
                    <mask id="mask-2" fill="white">
                        <use xlink:href="#path-1"></use>
                    </mask>
                    <use id="Combined-Shape" fill="#333333" fill-rule="nonzero" xlink:href="#path-1"></use>
                    <g id="✱-/-Color-/-Icons-/-red-/-active" mask="url(#mask-2)" fill="#DC1E32" fill-rule="evenodd">
                        <g transform="translate(-36.000000, -36.000000)" id="Rectangle">
                            <rect x="0" y="0" width="101" height="101"></rect>
                        </g>
                    </g>
                </g>
            </g>
        </g>
    </g>
</svg>