<?xml version="1.0" encoding="UTF-8"?>
<svg width="24px" height="24px" viewBox="0 0 24 24" version="1.1" xmlns="http://www.w3.org/2000/svg" xmlns:xlink="http://www.w3.org/1999/xlink">
    <!-- Generator: Sketch 52.1 (67048) - http://www.bohemiancoding.com/sketch -->
    <title>icon_VAS1_3_selected</title>
    <desc>Created with Sketch.</desc>
    <defs>
        <path d="M5.52527731,11.6795034 C5.31901752,11.334681 5.2005,10.9312548 5.2005,10.5 L5.2005,9.5 C5.2005,8.2291722 6.2296722,7.2 7.5005,7.2 C8.7713278,7.2 9.8005,8.2291722 9.8005,9.5 L9.8005,10.5 C9.8005,10.9312548 9.68198248,11.334681 9.47572269,11.6795034 C10.8567664,12.3949621 11.8005,13.8372688 11.8005,15.5 L11.8005,16 C11.8005,16.4418278 11.4423278,16.8 11.0005,16.8 L4.0005,16.8 C3.5586722,16.8 3.2005,16.4418278 3.2005,16 L3.2005,15.5 C3.2005,13.8372688 4.14423361,12.3949621 5.52527731,11.6795034 Z M23.8,4 L23.8,20 C23.8,20.4418278 23.4418278,20.8 23,20.8 L1,20.8 C0.5581722,20.8 0.2,20.4418278 0.2,20 L0.2,4 C0.2,3.5581722 0.5581722,3.2 1,3.2 L23,3.2 C23.4418278,3.2 23.8,3.5581722 23.8,4 Z M22.2,4.8 L1.8,4.8 L1.8,19.2 L22.2,19.2 L22.2,4.8 Z M7.5005,11.2 C7.8876722,11.2 8.2005,10.8871722 8.2005,10.5 L8.2005,9.5 C8.2005,9.1128278 7.8876722,8.8 7.5005,8.8 C7.1133278,8.8 6.8005,9.1128278 6.8005,9.5 L6.8005,10.5 C6.8005,10.8871722 7.1133278,11.2 7.5005,11.2 Z M15.0005,10.8 C14.5586722,10.8 14.2005,10.4418278 14.2005,10 C14.2005,9.5581722 14.5586722,9.2 15.0005,9.2 L19.0005,9.2 C19.4423278,9.2 19.8005,9.5581722 19.8005,10 C19.8005,10.4418278 19.4423278,10.8 19.0005,10.8 L15.0005,10.8 Z M15.0005,14.8 C14.5586722,14.8 14.2005,14.4418278 14.2005,14 C14.2005,13.5581722 14.5586722,13.2 15.0005,13.2 L19.0005,13.2 C19.4423278,13.2 19.8005,13.5581722 19.8005,14 C19.8005,14.4418278 19.4423278,14.8 19.0005,14.8 L15.0005,14.8 Z M7.5005,12.8 C6.11073055,12.8 4.96621115,13.8500122 4.81697852,15.2 L10.1840215,15.2 C10.0347888,13.8500122 8.89026945,12.8 7.5005,12.8 Z" id="path-1"></path>
    </defs>
    <g id="保留" stroke="none" stroke-width="1" fill="none" fill-rule="evenodd">
        <g id="寄件/上门取件/大陆件/普通物品/5完善信息首页_增值服务1-copy" transform="translate(-45.000000, -574.000000)">
            <g id="Group-7" transform="translate(45.000000, 574.000000)">
                <g id="icon/content/身份证_24px">
                    <mask id="mask-2" fill="white">
                        <use xlink:href="#path-1"></use>
                    </mask>
                    <use id="Combined-Shape" fill="#444444" fill-rule="nonzero" xlink:href="#path-1"></use>
                    <g id="✱-/-Color-/-Icons-/-red-/-active" mask="url(#mask-2)" fill="#DC1E32" fill-rule="evenodd">
                        <g transform="translate(-36.000000, -36.000000)" id="Rectangle">
                            <rect x="0" y="0" width="101" height="101"></rect>
                        </g>
                    </g>
                </g>
            </g>
        </g>
    </g>
</svg>