<?xml version="1.0" encoding="UTF-8"?>
<svg width="24px" height="24px" viewBox="0 0 24 24" version="1.1" xmlns="http://www.w3.org/2000/svg" xmlns:xlink="http://www.w3.org/1999/xlink">
    <!-- Generator: Sketch 52.1 (67048) - http://www.bohemiancoding.com/sketch -->
    <title>icon_VAS1_4_selected</title>
    <desc>Created with Sketch.</desc>
    <defs>
        <path d="M12.955236,1.2 C13.16763,1.18652885 13.388714,1.25734318 13.5656854,1.43431458 L19.5656854,7.43431458 C19.7426568,7.61128597 19.8134711,7.83237 19.8,8.04476397 L19.8,22 C19.8,22.4418278 19.4418278,22.8 19,22.8 L4,22.8 C3.5581722,22.8 3.2,22.4418278 3.2,22 L3.2,2 C3.2,1.5581722 3.5581722,1.2 4,1.2 L12.955236,1.2 Z M12.2,2.8 L4.8,2.8 L4.8,21.2 L18.2,21.2 L18.2,8.8 L13,8.8 C12.5581722,8.8 12.2,8.4418278 12.2,8 L12.2,2.8 Z M13.8,7.2 L17.0686292,7.2 L13.8,3.93137085 L13.8,7.2 Z M16.8,12 L16.8,18.5454545 C16.8,18.9872823 16.4418278,19.3454545 16,19.3454545 L7,19.3454545 C6.5581722,19.3454545 6.2,18.9872823 6.2,18.5454545 L6.2,12 C6.2,11.5581722 6.5581722,11.2 7,11.2 L16,11.2 C16.4418278,11.2 16.8,11.5581722 16.8,12 Z M7.8,12.8 L7.8,17.7454545 L15.2,17.7454545 L15.2,12.8 L7.8,12.8 Z M11.7274773,15.2545455 C11.2856495,15.2545455 10.9274773,14.8963733 10.9274773,14.4545455 C10.9274773,14.0127177 11.2856495,13.6545455 11.7274773,13.6545455 L13.3638409,13.6545455 C13.8056687,13.6545455 14.1638409,14.0127177 14.1638409,14.4545455 C14.1638409,14.8963733 13.8056687,15.2545455 13.3638409,15.2545455 L11.7274773,15.2545455 Z M11.7274773,16.8909091 C11.2856495,16.8909091 10.9274773,16.5327369 10.9274773,16.0909091 C10.9274773,15.6490813 11.2856495,15.2909091 11.7274773,15.2909091 L13.3638409,15.2909091 C13.8056687,15.2909091 14.1638409,15.6490813 14.1638409,16.0909091 C14.1638409,16.5327369 13.8056687,16.8909091 13.3638409,16.8909091 L11.7274773,16.8909091 Z" id="path-1"></path>
    </defs>
    <g id="保留" stroke="none" stroke-width="1" fill="none" fill-rule="evenodd">
        <g id="寄件/上门取件/大陆件/普通物品/5完善信息首页_增值服务1-copy" transform="translate(-141.000000, -574.000000)">
            <g id="Group-9" transform="translate(141.000000, 574.000000)">
                <g id="icon/content/身份证复印件_24px">
                    <mask id="mask-2" fill="white">
                        <use xlink:href="#path-1"></use>
                    </mask>
                    <use id="Combined-Shape" fill="#000000" fill-rule="nonzero" xlink:href="#path-1"></use>
                    <g id="✱-/-Color-/-Icons-/-red-/-active" mask="url(#mask-2)" fill="#DC1E32" fill-rule="evenodd">
                        <g transform="translate(-36.000000, -36.000000)" id="Rectangle">
                            <rect x="0" y="0" width="101" height="101"></rect>
                        </g>
                    </g>
                </g>
            </g>
        </g>
    </g>
</svg>