<?xml version="1.0" encoding="UTF-8"?>
<svg width="24px" height="24px" viewBox="0 0 24 24" version="1.1" xmlns="http://www.w3.org/2000/svg" xmlns:xlink="http://www.w3.org/1999/xlink">
    <!-- Generator: Sketch 52.1 (67048) - http://www.bohemiancoding.com/sketch -->
    <title>icon_保价</title>
    <desc>Created with Sketch.</desc>
    <defs>
        <path d="M11,2.9520374 L11,1.704 C11,1.31519154 11.3151915,1 11.704,1 L12.296,1 C12.6848085,1 13,1.31519154 13,1.704 L13,2.9520374 C18.6065,3.39136678 23,7.48865865 23,12.4782609 L17.0130459,14.3913043 L7.04275617,14.3913043 L1,12.4782609 C1,7.48865865 5.39349999,3.39136678 11,2.9520374 Z M15.9926567,12.4782609 C15.3210689,7.25070917 13.8991836,4.82608696 12,4.82608696 C7.53502797,4.82608696 3.88127138,7.58030288 3.13818904,11.140076 L6.05161426,12.0624215 C6.22966235,10.8709919 6.37953632,10.004769 6.50377483,9.45382912 C6.6202236,8.93743305 7.15227397,8.60910734 7.69214259,8.72049312 C8.23201121,8.83187891 8.57526082,9.34079665 8.45881205,9.85719273 C8.34196679,10.375347 8.19137754,11.2527593 8.00990151,12.4782609 L15.9926567,12.4782609 Z M17.9552525,12.0732713 L20.8626799,11.1442455 C20.3717194,8.78464163 18.6019782,6.7785189 16.164578,5.69310319 C17.0047147,7.21794899 17.5933081,9.35617083 17.9552525,12.0732713 Z M13,20.1304348 C13,20.6587072 13.4477153,21.0869565 14,21.0869565 C14.5522847,21.0869565 15,20.6587072 15,20.1304348 C15,19.6021624 15.4477153,19.173913 16,19.173913 C16.5522847,19.173913 17,19.6021624 17,20.1304348 C17,21.7152519 15.6568542,23 14,23 C12.3431458,23 11,21.7152519 11,20.1304348 L11,15.3478261 L13,15.3478261 L13,20.1304348 Z" id="path-1"></path>
    </defs>
    <g id="Symbols" stroke="none" stroke-width="1" fill="none" fill-rule="evenodd">
        <g id="icon/content/保价_24px">
            <mask id="mask-2" fill="white">
                <use xlink:href="#path-1"></use>
            </mask>
            <use id="Mask" fill="#DC1E32" fill-rule="nonzero" xlink:href="#path-1"></use>
            <g id="✱-/-Color-/-Icons-/-Black-/-dark" mask="url(#mask-2)" fill="#1C1C1C">
                <g transform="translate(-36.000000, -36.000000)" id="Rectangle">
                    <rect x="0" y="0" width="101" height="101"></rect>
                </g>
            </g>
        </g>
    </g>
</svg>