<?xml version="1.0" encoding="UTF-8"?>
<svg width="24px" height="24px" viewBox="0 0 24 24" version="1.1" xmlns="http://www.w3.org/2000/svg" xmlns:xlink="http://www.w3.org/1999/xlink">
    <!-- Generator: Sketch 52.1 (67048) - http://www.bohemiancoding.com/sketch -->
    <title>icon_备注</title>
    <desc>Created with Sketch.</desc>
    <defs>
        <path d="M13.1958405,17.8 L3.00043211,17.8 C2.00474991,17.8 1.2,16.9905531 1.2,15.9931545 L1.2,4.00684547 C1.2,3.01416108 2.00828685,2.2 2.99180311,2.2 L21.0081969,2.2 C22.0006796,2.2 22.8,3.01098069 22.8,4.00684547 L22.8,15.9931545 C22.8,16.9934106 21.996124,17.8 20.9906311,17.8 L18.8,17.8 L18.8,21 C18.8,21.6902791 17.9844299,22.0565239 17.4685089,21.5979275 L13.1958405,17.8 Z M17.2,17 C17.2,16.5581722 17.5581722,16.2 18,16.2 L20.9906311,16.2 C21.1112592,16.2 21.2,16.1109597 21.2,15.9931545 L21.2,4.00684547 C21.2,3.88949105 21.1117957,3.8 21.0081969,3.8 L2.99180311,3.8 C2.89454639,3.8 2.8,3.89523351 2.8,4.00684547 L2.8,15.9931545 C2.8,16.1089752 2.89049662,16.2 3.00043211,16.2 L13.5,16.2 C13.6959313,16.2 13.8850502,16.2719029 14.0314911,16.4020725 L17.2,19.2185249 L17.2,17 Z M7.5,8.8 C7.0581722,8.8 6.7,8.4418278 6.7,8 C6.7,7.5581722 7.0581722,7.2 7.5,7.2 L16.5,7.2 C16.9418278,7.2 17.3,7.5581722 17.3,8 C17.3,8.4418278 16.9418278,8.8 16.5,8.8 L7.5,8.8 Z M7.5,12.8 C7.0581722,12.8 6.7,12.4418278 6.7,12 C6.7,11.5581722 7.0581722,11.2 7.5,11.2 L13.5,11.2 C13.9418278,11.2 14.3,11.5581722 14.3,12 C14.3,12.4418278 13.9418278,12.8 13.5,12.8 L7.5,12.8 Z" id="path-1"></path>
    </defs>
    <g id="上門取件" stroke="none" stroke-width="1" fill="none" fill-rule="evenodd">
        <g id="寄件/上门取件/大陆件/普通物品/5完善信息首页2" transform="translate(-287.000000, -453.000000)">
            <g id="shape" transform="translate(-305.000000, 144.000000)">
                <g id="快件信息" transform="translate(0.000000, 228.000000)">
                    <g id="选项" transform="translate(0.000000, 41.000000)">
                        <g id="3-copy-3" transform="translate(544.000000, 0.000000)">
                            <g id="Group-2" transform="translate(48.000000, 40.000000)">
                                <g id="icon/content/备注_24px">
                                    <g id="bubble-2" stroke-width="1" fill-rule="evenodd" transform="translate(2.000000, 3.000000)" stroke="#000000" stroke-linecap="round" stroke-linejoin="round">
                                        <path d="M0,1.00684547 C0,0.450780073 0.455305576,0 0.99180311,0 L19.0081969,0 C19.5559546,0 20,0.449948758 20,1.00684547 L20,12.9931545 C20,13.5492199 19.5566468,14 18.9906311,14 L16,14 L16,18 L11.5,14 L1.00043211,14 C0.447908713,14 0,13.5500512 0,12.9931545 L0,1.00684547 Z" id="Rectangle-4" stroke-width="1.6"></path>
                                        <path d="M5.5,5 L14.5,5" id="Line" stroke-width="1.6"></path>
                                        <path d="M5.5,9 L11.5,9" id="Line-Copy" stroke-width="1.6"></path>
                                    </g>
                                    <mask id="mask-2" fill="white">
                                        <use xlink:href="#path-1"></use>
                                    </mask>
                                    <use id="Combined-Shape" fill="#000000" fill-rule="nonzero" xlink:href="#path-1"></use>
                                    <g id="✱-/-Color-/-Icons-/-Black-/-dark" mask="url(#mask-2)" fill="#1C1C1C" fill-rule="evenodd">
                                        <g transform="translate(-36.000000, -36.000000)" id="Rectangle">
                                            <rect x="0" y="0" width="101" height="101"></rect>
                                        </g>
                                    </g>
                                </g>
                            </g>
                        </g>
                    </g>
                </g>
            </g>
        </g>
    </g>
</svg>