<?xml version="1.0" encoding="UTF-8"?>
<svg width="24px" height="24px" viewBox="0 0 24 24" version="1.1" xmlns="http://www.w3.org/2000/svg" xmlns:xlink="http://www.w3.org/1999/xlink">
    <!-- Generator: Sketch 52.1 (67048) - http://www.bohemiancoding.com/sketch -->
    <title>icon_content_cake</title>
    <desc>Created with Sketch.</desc>
    <defs>
        <path d="M12.8,9.96 L20,9.96 C20.4418278,9.96 20.8,10.3181722 20.8,10.76 L20.8,13.96 L22,13.96 C22.4418278,13.96 22.8,14.3181722 22.8,14.76 L22.8,22.76 C22.8,23.2018278 22.4418278,23.56 22,23.56 L2,23.56 C1.5581722,23.56 1.2,23.2018278 1.2,22.76 L1.2,14.76 C1.2,14.3181722 1.5581722,13.96 2,13.96 L3.2,13.96 L3.2,10.76 C3.2,10.3181722 3.5581722,9.96 4,9.96 L11.2,9.96 L11.2,8.44394171 C10.0436871,8.09953324 9.2,7.02786561 9.2,5.76 C9.2,5.20330153 9.46851659,4.50084295 9.94583696,3.59678113 C10.0569803,3.38627174 10.1782109,3.16833893 10.307989,2.9446015 C10.534084,2.55481376 10.7753398,2.16552332 11.0165461,1.79406565 C11.1615863,1.57070366 11.2751344,1.40180908 11.341723,1.30538879 C11.6597605,0.844870403 12.3402395,0.844870403 12.658277,1.30538879 C12.7248656,1.40180908 12.8384137,1.57070366 12.9834539,1.79406565 C13.2246602,2.16552332 13.465916,2.55481376 13.692011,2.9446015 C13.8217891,3.16833893 13.9430197,3.38627174 14.054163,3.59678113 C14.5314834,4.50084295 14.8,5.20330153 14.8,5.76 C14.8,7.02786561 13.9563129,8.09953324 12.8,8.44394171 L12.8,9.96 Z M4.8,13.96 L19.2,13.96 L19.2,11.56 L4.8,11.56 L4.8,13.96 Z M2.8,18.452335 L2.8,21.96 L21.2,21.96 L21.2,18.452335 C20.4335009,19.1430042 19.4466642,19.56 18.3636364,19.56 C17.1290192,19.56 15.9961391,19.0067159 15.1818182,18.0851501 C14.3674973,19.0067159 13.2346172,19.56 12,19.56 C10.7653828,19.56 9.63250273,19.0067159 8.81818182,18.0851501 C8.00386091,19.0067159 6.87098079,19.56 5.63636364,19.56 C4.55333585,19.56 3.56649908,19.1430042 2.8,18.452335 Z M2.88925255,15.56 C3.20610894,16.9489662 4.32827662,17.96 5.63636364,17.96 C6.6603034,17.96 7.59505662,17.3273098 8.10111892,16.3042877 C8.39481519,15.7105708 9.24154845,15.7105708 9.53524472,16.3042877 C10.041307,17.3273098 10.9760602,17.96 12,17.96 C13.0239398,17.96 13.958693,17.3273098 14.4647553,16.3042877 C14.7584515,15.7105708 15.6051848,15.7105708 15.8988811,16.3042877 C16.4049434,17.3273098 17.3396966,17.96 18.3636364,17.96 C19.6717234,17.96 20.7938911,16.9489662 21.1107475,15.56 L2.88925255,15.56 Z M11.692011,3.7473985 C11.5724298,3.95355658 11.4614305,4.15309671 11.3607384,4.34381112 C11.0042443,5.01902379 10.8,5.55334141 10.8,5.76 C10.8,6.4221722 11.3378278,6.96 12,6.96 C12.6621722,6.96 13.2,6.4221722 13.2,5.76 C13.2,5.55334141 12.9957557,5.01902379 12.6392616,4.34381112 C12.5385695,4.15309671 12.4275702,3.95355658 12.307989,3.7473985 C12.2083408,3.57560498 12.1051178,3.40322883 12,3.23229021 C11.8948822,3.40322883 11.7916592,3.57560498 11.692011,3.7473985 Z" id="path-1"></path>
    </defs>
    <g id="保留" stroke="none" stroke-width="1" fill="none" fill-rule="evenodd">
        <g id="寄件/上门取件/大陆件/同城/3信息填写_弹框1-copy" transform="translate(-188.000000, -290.000000)">
            <g id="Group-5" transform="translate(188.000000, 290.000000)">
                <g id="icon/content/cake_24px">
                    <mask id="mask-2" fill="white">
                        <use xlink:href="#path-1"></use>
                    </mask>
                    <use id="Combined-Shape" fill="#000000" fill-rule="nonzero" xlink:href="#path-1"></use>
                    <g id="✱-/-Color-/-Icons-/-Black-/-dark" mask="url(#mask-2)" fill="#1C1C1C" fill-rule="evenodd">
                        <g transform="translate(-36.000000, -36.000000)" id="Rectangle">
                            <rect x="0" y="0" width="101" height="101"></rect>
                        </g>
                    </g>
                </g>
            </g>
        </g>
    </g>
</svg>